<?xml version="1.0" standalone="no"?>
<!DOCTYPE svg PUBLIC "-//W3C//DTD SVG 20010904//EN"
 "http://www.w3.org/TR/2001/REC-SVG-20010904/DTD/svg10.dtd">
<svg version="1.0" xmlns="http://www.w3.org/2000/svg"
 width="200.000000pt" height="200.000000pt" viewBox="0 0 200.000000 200.000000"
 preserveAspectRatio="xMidYMid meet">
<metadata>
Created by potrace 1.11, written by Peter Selinger 2001-2013
</metadata>
<g transform="translate(0.000000,200.000000) scale(0.100000,-0.100000)"
fill="#000000" stroke="none">
<path d="M840 1567 l-115 -62 -3 -131 -3 -131 -117 -64 -117 -64 -1 -133 c0
-83 3 -136 10 -141 6 -5 62 -36 124 -70 l114 -61 176 96 c97 53 202 110 232
127 30 16 82 44 115 63 33 18 89 48 125 68 l65 35 3 138 2 138 -107 57 c-60
32 -137 74 -173 94 -166 91 -191 104 -203 104 -7 0 -64 -29 -127 -63z"/>
<path d="M650 534 c0 -101 3 -125 18 -143 17 -21 64 -34 70 -18 5 16 2 47 -5
46 -31 -5 -33 3 -33 121 l0 120 -25 -2 -25 -2 0 -122z"/>
<path d="M776 648 c-4 -12 -2 -216 2 -245 2 -15 59 -46 74 -41 6 2 13 14 15
26 3 20 -6 27 -29 23 -10 -1 -11 6 -14 114 -1 50 -2 100 -3 113 -1 15 -7 22
-21 22 -11 0 -22 -6 -24 -12z"/>
<path d="M123 614 c-21 -21 -23 -32 -23 -112 0 -127 7 -134 131 -137 108 -2
119 0 119 26 0 22 3 21 -110 23 l-85 1 -3 82 c-3 80 -2 83 22 89 13 3 32 5 42
4 11 -1 45 -2 77 -1 55 1 58 2 55 24 -3 21 -7 22 -102 23 -92 1 -101 -1 -123
-22z"/>
<path d="M1447 634 c-4 -4 -7 -20 -7 -36 0 -24 -4 -28 -28 -28 -35 0 -41 -6
-35 -31 4 -13 14 -19 34 -19 32 0 32 0 30 -105 0 -46 2 -50 24 -51 25 -2 25
-1 25 77 l0 79 43 0 c38 0 43 3 45 25 2 23 -1 25 -42 25 -43 0 -45 1 -48 32
-3 31 -25 48 -41 32z"/>
<path d="M1623 627 c-3 -6 -7 -66 -8 -134 -1 -110 1 -123 17 -129 10 -3 22 -3
26 0 5 3 8 50 7 106 0 55 1 104 4 109 4 5 42 8 86 7 79 -1 80 -1 83 -27 5 -43
-19 -58 -88 -55 -33 2 -60 0 -61 -3 -6 -43 -4 -51 7 -47 7 3 39 -16 70 -41 45
-37 66 -47 96 -48 l39 -1 -46 39 c-25 21 -45 42 -45 47 0 4 11 11 25 14 47 12
74 115 39 150 -19 20 -9 18 -137 21 -69 2 -109 -1 -114 -8z"/>
<path d="M401 544 c-15 -19 -19 -38 -18 -84 3 -83 16 -94 113 -95 96 0 114 16
114 106 0 82 -19 99 -116 99 -66 0 -74 -2 -93 -26z m157 -76 l-3 -53 -50 -1
c-27 0 -55 1 -61 3 -11 4 -18 78 -8 94 3 5 32 9 65 9 l60 0 -3 -52z"/>
<path d="M913 548 c-13 -15 -21 -40 -22 -70 -5 -88 16 -110 106 -113 49 -2 53
-1 53 21 0 21 -5 23 -52 26 l-53 3 -3 53 c-3 58 -6 56 82 53 46 -2 51 -5 43
-26 -5 -11 -21 -15 -57 -15 -46 0 -50 -2 -50 -24 0 -22 3 -23 61 -22 73 2 103
26 94 79 -8 45 -31 56 -111 57 -61 0 -73 -3 -91 -22z"/>
<path d="M1170 550 c-20 -20 -22 -27 -22 -75 0 -97 11 -107 124 -110 l78 -2 0
26 c0 26 -1 27 -71 26 -85 -2 -88 2 -80 88 1 14 12 17 76 17 73 0 75 1 75 25
0 25 -1 25 -80 25 -67 0 -83 -3 -100 -20z"/>
</g>
</svg>
